PathFileType	4	(X/Y/Z)	s08c0201.trc
DataRate	CameraRate	NumFrames	NumMarkers	Units	OrigDataRate	OrigDataStartFrame	OrigNumFrames
200	200	4	50	mm	200	1750	2000
Frame#	Time	racr			lacr			c7			jug			rlel			rdr			llel			ldr			s2			lic			ric			lasi			rasi			rpsi			lpsi			rgt			lgt			rth1			rth2			rth3			rth4			rlfc			rmfc			rsh1			rsh2			rsh3			rsh4			rlmal			rmmal			rcal			rtoe			rmt5			lth1			lth2			lth4			lth3			llfc			lmfc			llmal			lmmal			lcal			lmt5			lsh1			lsh2			lsh3			lsh4			ltoe			SBIKE			LBIKE			RBIKE			
		X1	Y1	Z1	X2	Y2	Z2	X3	Y3	Z3	X4	Y4	Z4	X5	Y5	Z5	X6	Y6	Z6	X7	Y7	Z7	X8	Y8	Z8	X9	Y9	Z9	X10	Y10	Z10	X11	Y11	Z11	X12	Y12	Z12	X13	Y13	Z13	X14	Y14	Z14	X15	Y15	Z15	X16	Y16	Z16	X17	Y17	Z17	X18	Y18	Z18	X19	Y19	Z19	X20	Y20	Z20	X21	Y21	Z21	X22	Y22	Z22	X23	Y23	Z23	X24	Y24	Z24	X25	Y25	Z25	X26	Y26	Z26	X27	Y27	Z27	X28	Y28	Z28	X29	Y29	Z29	X30	Y30	Z30	X31	Y31	Z31	X32	Y32	Z32	X33	Y33	Z33	X34	Y34	Z34	X35	Y35	Z35	X36	Y36	Z36	X37	Y37	Z37	X38	Y38	Z38	X39	Y39	Z39	X40	Y40	Z40	X41	Y41	Z41	X42	Y42	Z42	X43	Y43	Z43	X44	Y44	Z44	X45	Y45	Z45	X46	Y46	Z46	X47	Y47	Z47	X48	Y48	Z48	X49	Y49	Z49	X50	Y50	Z50	
1750	8.7500	520.677452	1396.353949	-67.796157	526.310775	1401.631888	-444.785148	497.060013	1479.134245	-248.053970	480.810424	1321.690859	-241.725531	582.772237	1149.816373	14.590818	777.457339	928.268004	-69.757875	589.955841	1143.233700	-496.468751	780.716806	926.574483	-424.247243	-20.487929	1187.397624	-243.834107	144.020785	1189.738685	-386.108139	137.146544	1208.554154	-75.895271	172.654358	1146.483222	-346.617713	167.431675	1149.527457	-104.893572	6.689752	1230.222889	-190.281265	10.830343	1231.331397	-286.691076	65.428280	1083.560710	-45.744762	104.161038	1076.353278	-421.339094	192.528031	957.982884	-35.771688	270.140755	914.041106	-36.103896	314.384834	839.312147	-43.297691	295.368567	939.724340	-46.426161	381.335901	747.785440	-60.397110	360.845923	742.133748	-173.752457	274.637597	673.336276	-31.099189	232.735408	595.338308	-51.330045	159.646937	550.880594	-57.871607	257.399599	579.416191	-79.848553	70.679320	474.647133	-66.841724	98.395436	481.046021	-154.039634	-7.347706	492.009188	-114.313344	229.920924	313.021001	-105.555606	139.106304	339.506994	-40.892225	199.810044	981.912309	-422.595079	280.415913	947.975122	-418.166082	302.166317	976.009310	-407.126724	333.271857	876.555982	-415.670835	417.858323	780.012853	-390.076812	417.497873	751.257876	-284.640335	332.426170	370.181227	-403.704043	370.751060	398.865418	-332.550998	262.968081	345.314419	-366.923999	470.011072	286.550038	-424.904920	395.784887	654.534115	-418.541131	397.604904	569.993154	-402.801462	360.540624	490.274133	-408.099312	417.381977	568.942822	-369.119222	551.339351	315.160233	-354.938040	-140.675940	941.361373	-229.303765	16.942185	79.607119	-428.255345	16.894293	79.702044	-29.749232	
1751	8.7550	520.228386	1396.417727	-66.824746	526.629500	1401.761785	-444.120527	497.221697	1479.331243	-247.509197	480.748409	1322.013099	-241.041317	582.634147	1149.690650	14.603370	777.468915	928.423446	-69.642939	590.254793	1143.385048	-495.993441	780.765862	926.316097	-423.964492	-19.963166	1187.079248	-244.708449	145.209796	1189.267547	-386.335831	136.943644	1208.922164	-76.165985	173.196401	1145.309689	-346.996926	167.515599	1150.374831	-105.490655	6.737599	1230.183154	-191.066953	11.387414	1230.938499	-287.664320	65.959356	1084.448320	-45.776241	104.058354	1074.060947	-421.022222	194.864900	961.029248	-35.494567	273.322205	918.777815	-35.444943	318.922874	844.846163	-42.847765	298.070023	944.840601	-46.171147	387.619702	754.289297	-60.291273	366.896499	748.812103	-173.774712	280.243590	680.907562	-31.140240	237.384533	603.434319	-51.428713	163.681948	559.907921	-57.954690	261.789096	587.317612	-80.041319	73.919608	484.781626	-67.062686	101.398725	491.099501	-154.291545	-4.171721	502.647822	-114.503164	232.023671	322.305211	-105.701046	141.396377	349.353745	-40.984405	198.402831	977.142259	-423.144974	278.138036	941.155508	-418.751228	300.636731	968.729054	-407.945496	329.168104	868.627955	-416.047895	412.139554	771.100771	-390.091682	411.216275	742.370965	-285.013622	330.671217	361.186452	-403.715084	368.836278	389.782821	-332.279013	261.685199	337.072911	-366.774806	468.201188	276.390922	-424.802819	390.774349	645.492578	-418.532654	393.881246	561.072721	-403.245860	357.702761	480.789925	-407.972801	413.486332	559.942561	-368.888006	549.802428	304.256027	-354.888603	-140.659809	941.365647	-229.321064	16.944806	79.597430	-428.228405	16.888979	79.718911	-29.732682	
1752	8.7600	519.803405	1396.451469	-65.877263	526.988801	1401.979827	-443.454824	497.481981	1479.559454	-246.898165	480.833012	1322.476791	-240.115331	582.406412	1149.700821	14.839784	777.485080	928.566692	-69.561797	590.628298	1143.526131	-495.589025	780.802169	926.024178	-423.672325	-19.410402	1186.841936	-245.512210	146.391935	1188.934638	-386.477704	136.783242	1209.320050	-76.416458	173.731667	1144.060968	-347.480125	167.561976	1151.163081	-106.068620	6.834618	1230.270574	-191.984667	11.941360	1230.619508	-288.515863	66.441777	1085.432049	-45.814504	104.063750	1071.957570	-420.857746	197.102272	964.176650	-35.343034	276.487579	923.738745	-34.980144	323.388180	850.497039	-42.434899	300.672060	950.269264	-46.024424	393.759088	761.289530	-60.140988	369.982382	752.186224	-173.998195	285.947982	688.526904	-31.289763	242.184270	611.553932	-51.633919	168.188225	568.723974	-57.889473	265.579950	595.821471	-80.005084	77.516257	494.653849	-67.312885	104.282056	501.049391	-154.704673	-0.799268	512.914837	-114.804182	234.759780	331.571256	-105.887949	144.224221	359.136629	-41.160289	196.912273	972.414458	-423.775074	275.707467	934.496900	-419.383320	298.891641	961.620800	-408.653302	324.927083	860.698469	-416.174116	406.522555	762.512945	-393.303415	404.720010	733.718490	-285.357816	328.525676	352.521429	-403.690259	366.930099	380.967971	-332.328560	259.995389	329.207391	-366.671113	465.824589	266.308893	-424.750245	385.402183	636.702339	-418.598242	389.589501	552.443700	-403.268422	354.481625	471.597311	-407.942509	409.251869	551.029595	-368.032798	547.756014	293.414859	-354.817050	-140.644657	941.376433	-229.322706	16.933573	79.595481	-428.246919	16.884286	79.690167	-29.741818	
1753	8.7650	519.428050	1396.566268	-64.813207	527.467550	1402.223134	-442.847668	497.768528	1479.857806	-246.268633	480.911992	1322.816544	-239.483876	582.217832	1149.756703	15.151536	777.518828	928.714604	-69.454779	591.081858	1143.711223	-495.155210	780.844379	925.693648	-423.360496	-18.807474	1186.719427	-246.252307	147.578309	1188.605897	-386.664433	136.529995	1209.852806	-76.738388	174.361915	1142.703261	-347.996101	167.596547	1152.086873	-106.572441	7.000354	1230.427132	-192.898020	12.582808	1230.301139	-289.622398	66.823358	1086.565831	-45.850090	104.010571	1069.989203	-420.669934	199.288374	967.558596	-35.134711	279.493298	928.839262	-34.486255	327.753320	856.522243	-42.057024	303.108185	955.743823	-45.965247	399.764390	768.533954	-59.980174	394.455948	767.111698	-181.266231	291.711842	696.119536	-31.437100	247.194523	619.617983	-51.765349	172.711607	577.489292	-58.064208	270.348188	603.675993	-80.269895	81.465863	504.281464	-67.520347	107.583399	510.645802	-155.140540	2.671557	522.911536	-115.275977	238.013447	340.911839	-106.029875	147.623751	368.732981	-41.267128	195.295776	967.869476	-424.572215	273.161325	928.029789	-419.989381	296.956330	954.646231	-409.394239	321.487993	854.118467	-418.541041	401.208487	756.779744	-394.721893	398.048544	725.390315	-285.665205	325.930672	344.220931	-403.733078	364.500934	372.594968	-332.324298	257.934499	321.792566	-366.610042	462.925332	256.417209	-424.638727	379.704973	628.086519	-418.683195	384.975486	543.907853	-403.212085	350.878007	462.717799	-407.898359	404.555153	542.995050	-368.236380	545.297393	282.492974	-354.800504	-140.640303	941.381790	-229.324015	16.946144	79.608172	-428.240085	16.870184	79.704961	-29.743163	
